<svg width="158" height="62" viewBox="0 0 158 62" fill="none" xmlns="http://www.w3.org/2000/svg">
<g clip-path="url(#clip0_3242_845)">
<path d="M1.57606 24.2385C1.57606 23.8446 1.57606 23.5821 1.57606 23.1882C1.57606 22.7943 1.57606 22.5317 1.44461 22.2691C1.31316 22.0066 1.1817 21.744 0.9188 21.6127C0.655897 21.4814 0.392994 21.3501 -0.132812 21.2188V20.8249H0.9188C1.57606 20.8249 2.23332 20.8249 2.89057 20.8249C3.54783 20.8249 3.94219 20.5624 4.33654 20.1685H4.46799V44.1947C4.46799 44.4573 4.46799 44.5886 4.46799 44.8512C4.46799 45.1138 4.59945 45.2451 4.7309 45.5077C4.7309 45.7702 4.9938 45.9015 5.2567 46.0328C5.51961 46.0328 5.78251 46.2954 6.04541 46.2954V46.6893H3.94219C3.15348 46.6893 2.62767 46.4267 2.10187 46.0328C1.70751 45.6389 1.44461 44.9825 1.44461 44.1947V24.3698L1.57606 24.2385Z" fill="#002073"/>
<path d="M24.4476 44.1948C24.4476 44.4573 24.4476 44.5886 24.4476 44.8512C24.4476 45.1138 24.579 45.2451 24.7105 45.5077C24.7105 45.7702 24.9734 45.9015 25.2363 46.0328C25.4992 46.0328 25.7621 46.2954 26.025 46.2954V46.6893H23.9217C23.133 46.6893 22.6072 46.4267 22.0814 46.0328C21.6871 45.639 21.4242 44.9825 21.4242 44.1948V43.6696C20.7669 44.5886 19.9782 45.3764 18.9266 45.9015C17.875 46.4267 16.9548 46.8206 15.7717 46.9519C14.5887 46.9519 13.5371 46.9519 12.6169 46.4267C11.6967 46.0328 10.908 45.3764 10.1193 44.5886C9.46207 43.8009 8.93627 42.7506 8.54191 41.7002C8.14756 40.5186 8.0161 39.337 8.0161 38.0241V31.4595C8.0161 31.0657 8.0161 30.6718 7.62175 30.1466C7.35885 29.7527 6.96449 29.4902 6.17578 29.3589V28.965H8.27901C9.06772 28.965 9.59352 29.2276 10.1193 29.6215C10.5137 30.0153 10.7766 30.6718 10.7766 31.4595V37.6302C10.7766 39.0744 10.908 40.256 11.1709 41.3064C11.4338 42.3567 11.8282 43.1444 12.354 43.8009C12.8798 44.4573 13.4056 44.8512 14.0629 45.2451C14.7201 45.639 15.3774 45.639 16.0347 45.639C17.2177 45.639 18.1379 45.3764 19.058 44.7199C19.9782 44.0635 20.6355 43.2757 21.1613 42.3567V31.4595C21.1613 31.0657 21.1613 30.6718 20.7669 30.1466C20.504 29.7527 20.1097 29.4902 19.3209 29.3589V28.965H21.4242C22.2129 28.965 22.7387 29.2276 23.2645 29.6215C23.6588 30.0153 23.9217 30.6718 23.9217 31.4595V44.1948H24.4476Z" fill="#002073"/>
<path d="M33.3876 28.965V29.3589C33.1247 29.3589 32.9933 29.6215 32.9933 29.7527C32.9933 29.884 32.9933 30.1466 32.9933 30.4092C32.9933 30.6718 33.1247 30.9344 33.2562 31.1969C33.3876 31.4595 33.5191 31.7221 33.6505 31.8534L36.6739 36.186L39.1715 32.6411C39.6973 31.8534 39.9602 31.1969 39.9602 30.6718C39.9602 30.1466 39.6973 29.6215 39.1715 29.3589V28.965H45.6126V29.3589C43.2465 29.7527 41.0118 31.4595 39.04 34.2166L37.1997 36.8425L41.8005 43.407C42.3263 44.326 42.9836 44.9825 43.7723 45.3764C44.561 45.9015 45.2183 46.1641 45.7441 46.1641V46.558H38.7771V46.1641C39.04 46.1641 39.1715 45.9015 39.1715 45.7702C39.1715 45.639 39.1715 45.3764 39.1715 45.1138C39.1715 44.8512 39.04 44.5886 38.9086 44.326C38.7771 44.0635 38.6457 43.8009 38.5142 43.6696L35.6223 39.337L33.1247 42.8818C32.5989 43.6696 32.336 44.326 32.336 44.8512C32.336 45.3764 32.5989 45.9015 33.1247 46.1641V46.558H26.6836V46.1641C29.0497 45.7703 31.2844 44.0635 33.2562 41.3064L35.0965 38.6805L30.6271 32.2473C29.9699 31.3282 29.3126 30.6718 28.6554 30.1466C27.9981 29.6215 27.2094 29.3589 26.6836 29.3589V28.965H33.5191H33.3876Z" fill="#002073"/>
<path d="M63.488 46.558C62.6993 46.558 62.1734 46.2954 61.6476 45.9015C61.1218 45.5077 60.9904 44.8512 60.9904 44.0635V42.488C60.3331 43.0131 59.6759 43.5383 59.0186 44.0635C58.2299 44.5886 57.5726 45.1138 56.6525 45.5077C55.8638 45.9015 55.0751 46.2954 54.1549 46.558C53.3662 46.8206 52.446 46.9519 51.6573 46.9519C50.3428 46.9519 49.1597 46.558 48.2396 45.9015C47.3194 45.2451 46.6622 44.4573 46.3993 43.407C46.1363 42.488 46.1363 41.4376 46.6622 40.256C47.0565 39.0744 47.9767 38.1554 49.2912 37.2363C50.0799 36.7112 51.0001 36.186 51.9202 35.7921C52.8404 35.3983 53.892 34.8731 54.8122 34.6105C55.8638 34.2166 56.7839 33.9541 57.7041 33.6915C58.6243 33.4289 59.413 33.1663 60.0702 32.9037C59.5444 31.7221 58.7557 30.8031 57.7041 30.1466C56.6525 29.4902 55.7323 29.2276 54.6807 29.2276C53.6291 29.2276 53.3662 29.2276 52.7089 29.6214C52.0517 29.884 51.5259 30.1466 51.0001 30.5405C50.4743 30.9344 50.0799 31.3282 49.6855 31.8534C49.2912 32.3786 49.0283 32.9037 48.7654 33.5602L48.1081 33.2976C48.371 32.5098 48.7654 31.8534 49.2912 31.1969C49.817 30.5405 50.4743 30.0153 51.1315 29.6214C51.7888 29.2276 52.5775 28.8337 53.4976 28.5711C54.2864 28.3085 55.2065 28.1772 56.1267 28.1772C57.3097 28.1772 58.3613 28.4398 59.2815 28.8337C60.2017 29.2276 61.1218 29.884 61.7791 30.6718C62.4363 31.4595 62.9622 32.3786 63.3565 33.4289C63.7509 34.4792 63.8823 35.7921 63.8823 37.105V44.0635C63.8823 44.326 63.8823 44.4573 63.8823 44.7199C63.8823 44.9825 64.0138 45.1138 64.1452 45.3764C64.1452 45.639 64.4081 45.7702 64.671 45.9015C64.9339 45.9015 65.1968 46.1641 65.4597 46.1641V46.558H63.3565H63.488ZM60.9904 37.4989C60.9904 36.0547 60.7275 34.7418 60.3331 33.5602C59.1501 33.954 57.967 34.3479 56.9154 34.8731C55.8638 35.267 54.8122 35.7921 53.892 36.186C52.9718 36.7112 52.1831 37.2363 51.3944 37.7615C50.6057 38.2867 50.0799 38.8118 49.6855 39.4683C49.2912 39.9934 49.1597 40.5186 49.0283 40.9125C49.0283 41.4376 49.0283 41.9628 49.0283 42.3567C49.0283 42.7505 49.2912 43.2757 49.5541 43.6696C49.817 44.0635 50.2113 44.4573 50.6057 44.7199C51.263 45.1138 52.0517 45.3764 53.1033 45.3764C54.1549 45.3764 54.4178 45.3764 55.2065 45.1138C55.8638 44.8512 56.6525 44.5886 57.3097 44.326C57.967 44.0635 58.6243 43.5383 59.2815 43.1444C59.9388 42.7505 60.4646 42.2254 60.9904 41.7002V37.6302V37.4989Z" fill="#002073"/>
<path d="M65.9871 46.558V46.1641C66.6444 46.1641 67.1702 45.9015 67.3016 45.3764C67.5645 44.9825 67.696 44.4573 67.696 44.0635V30.2779C67.696 29.4902 67.696 28.5711 67.696 27.5208C67.696 26.4705 67.4331 25.4201 67.3016 24.2385C67.0387 23.0569 66.7758 21.8753 66.5129 20.6937C66.1186 19.512 65.7242 18.3304 65.3299 17.1488C63.8839 18.1991 62.4379 19.1182 60.8605 20.0372C59.2831 20.9562 57.9686 21.744 56.5226 22.4004C55.0766 23.0569 53.7621 23.5821 52.4476 24.1072C51.1331 24.6324 49.8186 24.7637 48.5041 24.7637C47.0581 24.7637 45.6121 24.6324 44.1662 24.2385C42.8516 23.8447 41.6686 23.1882 40.617 22.2692C39.5653 21.3501 38.7766 20.2998 38.1194 19.1182C37.4621 17.8053 37.1992 16.4924 37.1992 14.7856C37.1992 13.0788 37.5936 11.7659 38.2508 10.453C38.9081 9.14005 39.8283 8.22102 40.8799 7.30198C41.9315 6.51423 43.246 5.85778 44.692 5.4639C46.1379 5.07003 47.5839 4.80745 49.0299 4.80745C50.4758 4.80745 52.842 5.07003 54.4194 5.4639C56.1283 5.85778 57.5742 6.51423 59.0202 7.30198C60.4662 8.08972 61.6492 9.00876 62.7008 10.0591C63.7525 11.1094 64.8041 12.291 65.7242 13.4727C67.8274 12.0285 70.0621 10.453 72.2968 9.00876C74.5315 7.56456 76.7662 6.12036 79.1323 4.93874C81.4984 3.75712 83.8645 2.70679 86.3621 1.91905C88.8597 1.1313 91.3573 0.737427 93.9863 0.737427C96.6154 0.737427 98.5871 1.00001 100.427 1.65646C102.399 2.31292 103.977 3.10067 105.16 4.28228C106.474 5.33261 107.394 6.64552 108.052 8.08972C108.709 9.53393 108.84 10.9781 108.709 12.6849C108.577 14.1291 108.052 15.3107 107.526 16.2298C106.869 17.1488 106.211 17.9366 105.423 18.593C104.634 19.2495 103.845 19.6433 102.925 19.7746C102.005 19.9059 101.348 20.1685 100.69 20.1685C99.6387 20.1685 98.5871 20.0372 97.5355 19.7746C96.4839 19.512 95.4323 19.1182 94.5121 18.593C93.592 18.0678 92.5404 17.674 91.4887 17.0175C90.4371 16.3611 89.517 15.9672 88.4654 15.442C87.4137 14.9169 86.4936 14.523 85.442 14.2604C84.3904 13.9978 83.3387 13.8665 82.2871 13.8665C81.2355 13.8665 81.1041 13.8665 80.5783 13.9978C80.0525 13.9978 79.5266 14.2604 79.0008 14.523C78.475 14.7856 78.0807 15.0481 77.8178 15.442C77.4234 15.8359 77.1605 16.2298 77.0291 16.7549C76.8976 17.2801 76.7662 17.8053 77.0291 18.3304C77.292 18.8556 77.4234 19.2495 77.6863 19.6433C77.9492 20.0372 78.475 20.2998 79.0008 20.5624C79.5266 20.825 80.1839 20.825 80.8412 20.6937C81.367 20.6937 81.7613 20.4311 82.0242 20.1685C82.4186 19.9059 82.6815 19.6433 82.8129 19.2495C82.9444 18.8556 82.9444 18.593 82.8129 18.1991C82.6815 17.8053 82.55 17.4114 82.1557 17.1488L82.4186 16.8862C83.6016 17.4114 84.2589 18.0678 84.6533 18.7243C85.0476 19.3808 85.0476 20.1685 84.9162 20.9562C84.6533 21.6127 84.2589 22.2692 83.4702 22.7943C82.6815 23.3195 81.8928 23.5821 80.8412 23.5821C80.1839 23.5821 79.6581 23.5821 79.0008 23.1882C78.3436 22.9256 77.8178 22.663 77.4234 22.2692C77.0291 21.8753 76.6347 21.3501 76.3718 20.825C76.1089 20.2998 75.9775 19.6433 75.9775 18.8556C75.9775 18.0678 76.1089 17.0175 76.5033 16.3611C76.8976 15.7046 77.292 15.0481 77.8178 14.6543C78.3436 14.2604 79.1323 13.8665 79.921 13.6039C80.7097 13.3414 81.4984 13.2101 82.4186 13.2101C83.996 13.2101 85.5734 13.4727 87.1508 13.8665C88.7283 14.2604 90.1742 14.7856 91.7517 15.3107C93.3291 15.8359 94.775 16.3611 96.3525 16.7549C97.7984 17.1488 99.3758 17.4114 100.953 17.4114C102.531 17.4114 102.268 17.4114 103.056 17.2801C103.845 17.2801 104.634 16.8862 105.291 16.6236C105.948 16.3611 106.606 15.8359 107.263 15.1794C107.92 14.523 108.183 13.7352 108.315 12.6849C108.577 11.372 108.315 10.0591 107.92 8.74618C107.394 7.43327 106.606 6.25165 105.423 5.33261C104.24 4.41358 102.662 3.49454 100.822 2.96937C98.9815 2.44421 96.8783 2.05034 94.3807 2.05034C91.8831 2.05034 90.1742 2.44421 87.9396 3.36325C85.7049 4.28228 83.4702 5.33261 81.2355 6.64552C79.0008 7.95843 76.6347 9.53393 74.4 11.1094C72.1654 12.8162 69.7992 14.3917 67.5645 15.9672C68.7476 18.1991 69.6678 20.6937 70.1936 23.1882C70.7194 25.6827 70.9823 28.1773 70.9823 30.4092V31.7221C71.771 30.6718 72.6912 29.884 73.8742 29.2276C75.0573 28.5711 76.5033 28.3085 77.9492 28.3085C79.1323 28.3085 80.1839 28.5711 81.1041 28.965C82.0242 29.3589 82.9444 30.0153 83.6016 30.8031C84.2589 31.5908 84.7847 32.5099 85.1791 33.5602C85.5734 34.6105 85.7049 35.9234 85.7049 37.2363V44.1948C85.7049 44.4573 85.7049 44.5886 85.7049 44.8512C85.7049 45.1138 85.8363 45.2451 85.9678 45.5077C85.9678 45.7703 86.2307 45.9015 86.4936 46.0328C86.7565 46.0328 87.0194 46.2954 87.2823 46.2954V46.6893H85.1791C84.3904 46.6893 83.8646 46.4267 83.3387 46.0328C82.9444 45.639 82.6815 44.9825 82.6815 44.1948V37.6302C82.6815 36.186 82.55 35.0044 82.1557 34.0854C81.7613 33.1663 81.2355 32.2473 80.7097 31.5908C80.0525 30.9344 79.3952 30.4092 78.6065 30.1466C77.8178 29.7527 77.0291 29.6215 76.2404 29.6215C75.0573 29.6215 74.0057 29.884 72.9541 30.5405C71.9025 31.1969 71.2452 31.9847 70.7194 33.035V44.326C70.7194 44.5886 70.7194 44.7199 70.7194 44.9825C70.7194 45.2451 70.8508 45.3764 70.9823 45.639C70.9823 45.9015 71.2452 46.0328 71.5081 46.1641C71.771 46.1641 72.0339 46.4267 72.2968 46.4267V46.8206H65.9871V46.558ZM63.8839 14.7856C63.2266 13.6039 62.3065 12.4223 61.3863 11.2407C60.4662 10.1904 59.4145 9.14005 58.1 8.35231C56.7855 7.56456 55.471 6.9081 54.025 6.38294C52.5791 5.85778 50.7387 5.72649 48.8984 5.72649C47.0581 5.72649 46.0065 5.85778 44.692 6.25165C43.3774 6.64552 42.1944 7.17069 41.2742 7.95843C40.2226 8.74618 39.5653 9.66522 38.9081 10.8468C38.2508 12.0285 38.1194 13.3414 38.1194 14.9169C38.1194 16.4924 38.3823 17.1488 38.9081 18.1991C39.4339 19.2495 40.2226 19.9059 41.1428 20.5624C42.0629 21.2188 43.1145 21.6127 44.4291 21.8753C45.6121 22.1379 46.9266 22.1379 48.2412 22.0066C49.5557 21.8753 50.8702 21.4814 52.0533 21.0875C53.3678 20.6937 54.6823 20.0372 55.8654 19.512C57.1799 18.8556 58.4944 18.1991 59.8089 17.2801C61.1234 16.3611 62.4379 15.5733 63.7524 14.7856H63.8839Z" fill="#002073"/>
<path d="M104.765 46.558C103.977 46.558 103.451 46.2954 102.925 45.9015C102.531 45.5077 102.268 44.8512 102.268 44.0635V42.488C101.61 43.0131 100.953 43.5383 100.296 44.0635C99.5072 44.5886 98.85 45.1138 97.9298 45.5077C97.1411 45.9015 96.3524 46.2954 95.4322 46.558C94.6435 46.8206 93.7234 46.9519 92.9347 46.9519C91.6201 46.9519 90.4371 46.558 89.5169 45.9015C88.5968 45.2451 87.9395 44.4573 87.6766 43.407C87.4137 42.488 87.4137 41.4376 87.9395 40.256C88.3339 39.0744 89.254 38.1554 90.5685 37.2363C91.3572 36.7112 92.2774 36.186 93.1976 35.7921C94.1177 35.3983 95.1693 34.8731 96.0895 34.6105C97.1411 34.2166 98.0613 33.9541 98.9814 33.6915C99.9016 33.4289 100.69 33.1663 101.348 32.9037C100.822 31.7221 100.033 30.8031 98.9814 30.1466C97.9298 29.6214 97.0097 29.2276 95.958 29.2276C94.9064 29.2276 94.6435 29.2276 93.9863 29.6214C93.329 29.884 92.8032 30.1466 92.2774 30.5405C91.7516 30.9344 91.3572 31.3282 90.9629 31.8534C90.5685 32.3786 90.3056 32.9037 90.0427 33.5602L89.3855 33.2976C89.6484 32.5098 90.0427 31.8534 90.5685 31.1969C91.0943 30.5405 91.7516 30.0153 92.4089 29.6214C93.0661 29.2276 93.8548 28.8337 94.775 28.5711C95.5637 28.3085 96.4839 28.1772 97.404 28.1772C98.5871 28.1772 99.6387 28.4398 100.559 28.8337C101.479 29.2276 102.399 29.884 103.056 30.6718C103.714 31.4595 104.24 32.3786 104.634 33.4289C105.028 34.4792 105.16 35.7921 105.16 37.105V44.0635C105.16 44.326 105.16 44.4573 105.16 44.7199C105.16 44.9825 105.291 45.1138 105.423 45.3764C105.423 45.639 105.685 45.7702 105.948 45.9015C106.211 45.9015 106.474 46.1641 106.737 46.1641V46.558H104.634H104.765ZM102.399 37.4989C102.399 36.0547 102.136 34.7418 101.742 33.5602C100.559 33.954 99.3758 34.3479 98.3242 34.8731C97.2726 35.267 96.221 35.7921 95.3008 36.186C94.3806 36.7112 93.5919 37.2363 92.8032 37.7615C92.0145 38.2867 91.4887 38.8118 91.0943 39.4683C90.7 39.9934 90.5685 40.5186 90.4371 40.9125C90.4371 41.4376 90.4371 41.9628 90.4371 42.3567C90.4371 42.7505 90.7 43.2757 90.9629 43.6696C91.2258 44.0635 91.6201 44.4573 92.0145 44.7199C92.6718 45.1138 93.4605 45.3764 94.5121 45.3764C95.5637 45.3764 95.8266 45.3764 96.6153 45.1138C97.404 44.8512 98.0613 44.5886 98.7185 44.326C99.3758 44.0635 100.033 43.5383 100.69 43.1444C101.348 42.7505 101.873 42.2254 102.399 41.7002V37.6302V37.4989Z" fill="#002073"/>
<path d="M108.315 28.965C108.972 28.965 109.629 28.965 110.286 28.965C110.944 28.965 111.338 28.7024 111.732 28.3085H111.864V31.5908C112.521 30.6718 113.178 30.0153 114.23 29.3589C115.15 28.7024 116.202 28.4398 117.253 28.3085C120.54 27.9147 122.643 29.3589 123.563 32.5098C123.826 31.9847 124.22 31.4595 124.615 30.9343C125.009 30.4092 125.535 30.0153 125.929 29.6214C126.455 29.2276 126.981 28.965 127.638 28.7024C128.295 28.4398 128.821 28.3085 129.478 28.1772C134.079 27.7834 136.445 30.8031 136.445 37.105V44.0634C136.445 44.4573 136.445 44.8512 136.84 45.3764C137.234 45.9015 137.497 46.0328 138.286 46.1641V46.558H136.182C135.394 46.558 134.868 46.2954 134.342 45.9015C133.948 45.5077 133.685 44.8512 133.685 44.0634V37.4989C133.685 34.7418 133.291 32.6411 132.37 31.3282C131.45 30.0153 130.53 29.3589 129.216 29.3589C127.901 29.3589 128.032 29.3589 127.507 29.7527C126.981 30.1466 126.455 30.2779 125.929 30.6718C125.403 31.0656 125.009 31.4595 124.615 31.9847C124.22 32.5098 123.957 33.035 123.826 33.5602C124.089 34.6105 124.089 35.7921 124.089 37.2363V44.1947C124.089 44.5886 124.089 44.9825 124.483 45.5077C124.878 46.0328 125.141 46.1641 125.929 46.2954V46.6893H119.62V46.2954C120.277 46.2954 120.803 46.0328 121.066 45.5077C121.328 45.1138 121.46 44.5886 121.46 44.1947V37.6302C121.46 34.8731 121.066 32.7724 120.145 31.4595C119.225 30.1466 118.305 29.4901 116.991 29.4901C115.676 29.4901 115.939 29.4901 115.413 29.7527C114.887 30.0153 114.361 30.2779 113.967 30.5405C113.573 30.9343 113.047 31.1969 112.784 31.7221C112.39 32.116 112.127 32.5098 111.864 33.035V44.326C111.864 44.7199 111.864 45.1138 112.258 45.6389C112.653 46.1641 112.916 46.2954 113.704 46.4267V46.8206H107.395V46.4267C108.052 46.4267 108.578 46.1641 108.841 45.6389C109.103 45.2451 109.235 44.7199 109.235 44.326V32.5098C109.235 32.116 109.235 31.8534 109.235 31.4595C109.235 31.0656 109.235 30.8031 109.103 30.5405C108.972 30.2779 108.841 30.0153 108.578 29.884C108.315 29.7527 108.052 29.6214 107.526 29.4901V29.0963H108.578L108.315 28.965Z" fill="#002073"/>
<path d="M140.389 55.3545V32.2473C140.389 31.8534 140.389 31.5908 140.389 31.1969C140.389 30.8031 140.389 30.5405 140.257 30.2779C140.126 30.0153 139.994 29.7527 139.731 29.6215C139.468 29.4902 139.205 29.3589 138.68 29.2276V28.8337H139.731C140.389 28.8337 141.046 28.8337 141.703 28.8337C142.36 28.8337 142.755 28.5711 143.149 28.1773H143.28V31.4595C144.069 30.4092 144.989 29.6215 146.172 28.965C147.355 28.3085 148.801 28.046 150.247 28.046C151.43 28.046 152.482 28.3085 153.402 28.7024C154.322 29.0963 155.243 29.7527 155.9 30.4092C156.557 31.0657 157.083 31.9847 157.477 33.035C157.872 34.0853 158.003 35.1357 158.003 36.3173C158.003 37.4989 157.74 39.2057 157.346 40.5186C156.82 41.8315 156.163 42.8818 155.374 43.8009C154.585 44.7199 153.665 45.3764 152.614 45.9015C151.562 46.4267 150.51 46.558 149.327 46.558C148.144 46.558 147.224 46.2954 146.172 45.9015C145.121 45.5077 144.201 44.7199 143.28 43.8009V52.7287C143.28 53.5164 143.018 54.0416 142.623 54.5667C142.229 54.9606 141.572 55.2232 140.783 55.2232H140.389V55.3545ZM143.149 43.0131C143.938 43.8009 144.726 44.4573 145.515 44.8512C146.304 45.2451 147.093 45.3764 147.881 45.3764C148.67 45.3764 149.722 45.1138 150.51 44.7199C151.299 44.326 152.088 43.6696 152.745 42.8818C153.402 42.0941 153.928 41.1751 154.322 40.1247C154.717 39.0744 154.848 37.8928 154.848 36.5799C154.848 35.267 154.717 34.2166 154.322 33.2976C153.928 32.3786 153.534 31.5908 153.008 31.0657C152.482 30.5405 151.825 30.0153 151.036 29.7527C150.379 29.4902 149.59 29.3589 148.801 29.3589C147.487 29.3589 146.304 29.7527 145.384 30.4092C144.464 31.0657 143.675 31.9847 143.018 33.035V43.1444L143.149 43.0131Z" fill="#002073"/>
<path d="M151.434 22.1379L151.697 21.4814H154.326L154.588 22.1379C154.457 22.0066 154.326 21.8753 154.194 21.744C154.063 21.744 153.931 21.6127 153.668 21.6127C153.405 21.6127 153.405 21.6127 153.405 21.744C153.405 21.744 153.405 21.8753 153.405 22.1379V23.3195C153.405 23.7134 153.405 24.1072 153.405 24.1072C153.405 24.1072 153.405 24.3698 153.668 24.3698C153.537 24.3698 153.274 24.3698 153.142 24.3698C153.011 24.3698 152.748 24.3698 152.617 24.3698C152.617 24.3698 152.88 24.2385 152.88 24.1072C152.88 24.1072 152.88 23.7134 152.88 23.1882V22.0066C152.88 21.744 152.88 21.6127 152.88 21.6127C152.88 21.6127 152.88 21.6127 152.617 21.6127C152.222 21.6127 151.959 21.744 151.697 22.1379H151.434Z" fill="#002073"/>
<path d="M154.327 24.3698C154.458 24.3698 154.59 24.1072 154.721 23.8447C154.721 23.8447 154.721 23.5821 154.721 23.1882C154.721 23.1882 154.721 23.1882 154.721 23.0569V22.1379C154.721 22.0066 154.721 21.8753 154.721 21.744C154.721 21.744 154.721 21.6127 154.458 21.4814C154.458 21.4814 154.458 21.4814 154.721 21.4814C154.853 21.4814 154.984 21.4814 155.115 21.4814C155.247 21.8753 155.51 22.2692 155.641 22.663C155.773 23.0569 156.036 23.4508 156.167 23.7134L157.219 21.4814C157.219 21.4814 157.35 21.4814 157.482 21.4814C157.613 21.4814 157.482 21.4814 157.613 21.4814C157.745 21.4814 157.745 21.4814 157.876 21.4814C157.876 21.4814 157.745 21.4814 157.745 21.6127C157.745 21.6127 157.745 21.8753 157.745 22.0066V23.3195C157.745 23.5821 157.745 23.8447 157.745 23.8447C157.745 24.1072 157.876 24.2385 158.007 24.2385C158.007 24.2385 157.876 24.2385 157.745 24.2385H157.219C157.219 24.2385 157.219 24.2385 156.956 24.2385C157.087 24.2385 157.219 23.9759 157.219 23.8447C157.219 23.8447 157.219 23.5821 157.219 23.3195V21.744L156.036 24.5011C155.773 23.7134 155.247 22.7943 154.853 21.8753V23.1882C154.853 23.5821 154.853 23.8447 154.853 23.9759C154.853 24.1072 154.984 24.2385 155.115 24.2385C155.115 24.2385 155.115 24.2385 154.853 24.2385H154.458C154.458 24.2385 154.458 24.2385 154.195 24.2385L154.327 24.3698Z" fill="#002073"/>
<path d="M8.15071 58.3742C7.49345 59.0306 6.57329 59.2932 5.39022 59.2932C4.20716 59.2932 3.41845 59.0306 2.62974 58.3742C1.97248 57.7177 1.57812 56.93 1.57812 55.8797C1.57812 54.8293 1.97248 54.0416 2.62974 53.3851C3.287 52.7287 4.20716 52.4661 5.39022 52.4661C6.57329 52.4661 6.44183 52.4661 6.83619 52.7287C7.23054 52.9913 7.75635 53.1226 8.15071 53.3851L7.75635 54.5667C7.75635 54.0416 7.362 53.5164 6.96764 53.2538C6.57329 52.9913 6.04748 52.86 5.52167 52.86C4.60151 52.86 3.8128 53.1226 3.41845 53.779C3.02409 54.3042 2.76119 55.0919 2.76119 56.011C2.76119 56.93 3.02409 57.849 3.5499 58.3742C4.07571 58.8994 4.73296 59.1619 5.65313 59.1619C6.57329 59.1619 6.83619 59.1619 7.09909 58.7681C7.362 58.5055 7.49345 58.1116 7.49345 57.4552C7.49345 56.7987 7.49345 56.4048 7.23055 56.2735C6.96764 56.1422 6.83619 56.011 6.31038 56.011C6.83619 56.011 7.23055 56.011 7.6249 56.011C8.01925 56.011 8.28216 56.011 8.67651 56.011C8.80796 56.011 8.93942 56.011 8.80796 56.011C8.54506 56.1422 8.41361 56.2735 8.28216 56.4048C8.15071 56.5361 8.28216 56.6674 8.28216 56.93V57.9803C8.28216 57.9803 8.28216 58.2429 8.28216 58.3742C8.28216 58.3742 8.28216 58.5055 8.28216 58.6368L8.15071 58.3742Z" fill="#002073"/>
<path d="M8.67578 59.0306C8.93868 58.8993 9.20159 58.6368 9.33304 58.1116C9.33304 57.9803 9.33304 57.5864 9.33304 57.0613V55.2232C9.33304 54.8293 9.33304 54.5667 9.33304 54.4354C9.33304 54.4354 9.07014 54.3041 8.93868 54.3041C9.20159 54.3041 9.59594 54.0416 10.1217 53.9103C10.1217 53.9103 10.2532 53.9103 10.3847 53.9103C10.3847 54.4354 10.3847 54.9606 10.3847 55.4858V56.7987C10.3847 57.4551 10.3847 57.849 10.3847 57.9803C10.3847 58.5055 10.6476 58.768 11.0419 58.8993C10.9105 58.8993 10.779 58.8993 10.6476 58.8993H9.46449C9.46449 58.8993 9.20159 58.8993 8.93868 58.8993L8.67578 59.0306ZM9.20159 52.5974C9.20159 52.4661 9.20159 52.3348 9.33304 52.2035C9.46449 52.0722 9.59594 52.0722 9.72739 52.0722C9.85885 52.0722 9.9903 52.0722 10.1217 52.2035C10.1217 52.2035 10.2532 52.4661 10.2532 52.5974C10.2532 52.7287 10.2532 52.8599 10.1217 52.9912C10.1217 52.9912 9.85885 53.1225 9.72739 53.1225C9.46449 53.1225 9.20159 52.9912 9.20159 52.5974Z" fill="#002073"/>
<path d="M11.57 54.4354H10.7812V54.1729H11.4385C11.4385 53.3851 11.57 52.86 11.9643 52.4661C12.3587 52.0722 12.8845 51.9409 13.4103 51.9409H13.6732C13.6732 51.9409 13.6732 51.9409 13.9361 51.9409L13.6732 52.86C13.5417 52.4661 13.2788 52.2035 13.0159 52.2035C12.4901 52.2035 12.3587 52.5974 12.3587 53.2538V54.1729H13.4103V54.4354H12.4901V56.93C12.4901 57.5864 12.4901 57.9803 12.4901 58.1116C12.4901 58.6368 12.753 58.8993 13.1474 59.0306C13.0159 59.0306 12.8845 59.0306 12.753 59.0306H11.57C11.57 59.0306 11.3071 59.0306 11.1756 59.0306C11.4385 58.8993 11.57 58.7681 11.7014 58.5055C11.8329 58.2429 11.8329 57.849 11.8329 57.0613V54.3042L11.57 54.4354Z" fill="#002073"/>
<path d="M13.9361 54.4355C14.3305 54.1729 14.5934 53.9103 14.8563 53.6477C14.9878 53.3851 15.2507 53.1225 15.3821 52.5974C15.3821 52.7287 15.3821 52.9913 15.3821 53.2538C15.3821 53.3851 15.3821 53.6477 15.3821 54.0416H16.4337V54.3042H15.5136V56.5361C15.5136 57.3239 15.5136 57.7177 15.5136 57.849C15.5136 58.3742 15.7765 58.7681 16.1708 58.7681C16.0394 58.7681 15.7765 58.7681 15.5136 58.7681H14.9878C14.8563 58.7681 14.7248 58.5055 14.5934 58.2429C14.5934 58.2429 14.5934 57.849 14.5934 57.5864V56.93V56.6674V54.1729H13.8047L13.9361 54.4355Z" fill="#002073"/>
<path d="M17.0898 58.6368L17.4842 57.4551C17.4842 57.849 17.7471 58.2429 18.1415 58.5055C18.5358 58.7681 18.9302 58.7681 19.456 58.7681C19.9818 58.7681 20.2447 58.7681 20.5076 58.5055C20.9019 58.2429 21.0334 57.9803 21.0334 57.5864C21.0334 57.1926 20.9019 56.93 20.5076 56.7987C20.3761 56.7987 19.9818 56.6674 19.456 56.5361C18.1415 56.4048 17.4842 55.8797 17.4842 55.0919C17.4842 54.3042 17.7471 54.1729 18.2729 53.9103C18.6673 53.6477 19.1931 53.5164 19.7189 53.5164C20.2447 53.5164 21.0334 53.5164 21.6907 53.779L21.4277 54.698C21.1648 53.9103 20.7705 53.6477 19.9818 53.6477C19.1931 53.6477 19.1931 53.6477 18.9302 54.0416C18.6673 54.3042 18.5358 54.5667 18.5358 54.8293C18.5358 55.0919 18.6673 55.4858 19.0616 55.6171C19.1931 55.6171 19.5874 55.6171 20.1132 55.7484C20.9019 55.7484 21.4277 56.0109 21.6907 56.1422C21.9536 56.4048 22.085 56.6674 22.085 57.0613C22.085 57.7177 21.8221 58.1116 21.1648 58.5055C20.639 58.7681 20.1132 58.8993 19.456 58.8993C18.7987 58.8993 18.6673 58.8993 18.2729 58.8993C17.8786 58.8993 17.4842 58.7681 17.2213 58.5055L17.0898 58.6368Z" fill="#002073"/>
<path d="M31.5508 59.0306C31.8137 58.8994 31.9451 58.7681 32.0766 58.5055C32.208 58.2429 32.208 57.7177 32.208 56.7987V53.3851C32.208 53.1225 32.208 52.9913 32.208 52.86C32.208 52.7287 31.9451 52.7287 31.8137 52.5974C32.0766 52.5974 32.4709 52.5974 32.7338 52.5974C32.7338 52.5974 32.7338 52.5974 33.1282 52.5974C33.1282 52.5974 33.3911 52.5974 33.654 52.5974C33.2597 52.7287 33.1282 52.9913 33.1282 53.5164V55.6171C33.1282 55.6171 33.3911 55.6171 33.654 55.6171C33.9169 55.6171 34.1798 55.6171 34.1798 55.6171H36.4145C36.4145 55.6171 36.4145 55.6171 36.5459 55.6171C36.5459 55.6171 36.9403 55.6171 37.2032 55.6171V53.5164C37.2032 53.1225 37.0717 52.86 36.6774 52.7287C36.9403 52.7287 37.3347 52.7287 37.729 52.7287C38.1234 52.7287 38.2548 52.7287 38.6492 52.7287C38.2548 52.86 38.1234 53.1225 38.1234 53.6477V57.0613C38.1234 57.7177 38.1234 58.1116 38.1234 58.2429C38.1234 58.7681 38.3863 59.0306 38.7806 59.1619H38.5177H37.5976C37.3347 59.1619 37.0717 59.1619 36.6774 59.1619H36.5459C36.9403 59.0306 37.0717 58.6368 37.2032 58.1116C37.2032 57.9803 37.2032 57.5864 37.2032 56.93V55.8797C37.2032 55.8797 36.9403 55.8797 36.8088 55.8797H33.1282V56.93C33.1282 57.5864 33.1282 57.9803 33.1282 58.1116C33.1282 58.6368 33.3911 58.8994 33.7855 59.0306C33.7855 59.0306 33.654 59.0306 33.5226 59.0306H32.7338C32.6024 59.0306 32.208 59.0306 31.8137 59.0306H31.5508Z" fill="#002073"/>
<path d="M44.1669 59.0306C43.7725 59.0306 43.5096 59.0306 43.3782 59.0306H43.1152C43.1152 58.8993 42.9838 58.7681 42.8523 58.6368C42.8523 58.5055 42.8523 58.3742 42.7209 58.1116C42.5894 58.5055 42.3265 58.7681 41.9322 58.8993C41.5378 59.0306 41.1435 59.1619 40.7491 59.1619C40.3548 59.1619 39.5661 59.0306 39.3031 58.7681C38.9088 58.5055 38.7773 58.1116 38.7773 57.5864C38.7773 57.0613 39.0402 56.6674 39.6975 56.2735C40.3548 55.8797 41.2749 55.8797 42.458 55.8797H42.7209C42.7209 55.2232 42.5894 54.8293 42.3265 54.4355C42.0636 54.0416 41.6693 53.9103 41.012 53.9103C39.9604 53.9103 39.4346 54.3042 39.1717 55.2232L38.9088 54.1729C39.5661 53.779 40.3548 53.6477 41.1435 53.6477C41.9322 53.6477 42.5894 53.9103 42.9838 54.3042C43.2467 54.5667 43.3782 54.8293 43.3782 55.0919C43.3782 55.3545 43.3782 55.6171 43.3782 56.0109V56.6674C43.3782 57.3239 43.3782 57.7177 43.3782 57.849C43.3782 58.3742 43.6411 58.7681 44.0354 58.7681L44.1669 59.0306ZM42.8523 56.0109C42.8523 56.0109 42.8523 56.0109 42.7209 56.0109H42.458C41.8007 56.0109 41.1435 56.0109 40.7491 56.2735C40.0919 56.5361 39.829 56.93 39.829 57.5864C39.829 58.2429 39.829 58.2429 40.2233 58.5055C40.4862 58.7681 40.7491 58.7681 41.2749 58.7681C41.8007 58.7681 42.3265 58.6368 42.5894 58.2429C42.8523 57.849 42.9838 57.4551 42.9838 56.7987V55.8797L42.8523 56.0109Z" fill="#002073"/>
<path d="M44.1666 59.0306C44.4295 58.8993 44.6924 58.6368 44.6924 58.2429C44.6924 58.1116 44.6924 57.849 44.6924 57.3238V55.0919C44.6924 54.8293 44.6924 54.698 44.6924 54.5667C44.6924 54.4354 44.4295 54.4354 44.2981 54.4354C44.561 54.3042 44.9553 54.1729 45.4811 54.0416V55.4858C45.6126 54.9606 45.8755 54.5667 46.1384 54.3042C46.4013 54.0416 46.9271 53.9103 47.4529 53.9103C47.9787 53.9103 48.3731 53.9103 48.636 54.3042C48.8989 54.5667 49.1618 54.8293 49.2932 55.3545C49.5561 54.4354 50.2134 54.0416 51.265 54.0416C52.3166 54.0416 52.4481 54.3042 52.8424 54.8293C53.1053 55.2232 53.2368 55.8796 53.2368 56.7987V57.4551C53.2368 57.9803 53.2368 58.3742 53.2368 58.5055C53.2368 58.8993 53.4997 59.1619 53.7626 59.2932C53.4997 59.2932 53.3682 59.2932 53.2368 59.2932H52.3166C52.3166 59.2932 52.0537 59.2932 51.9223 59.2932C52.1852 59.1619 52.4481 58.8993 52.4481 58.5055C52.4481 58.3742 52.4481 57.9803 52.4481 57.5864V56.7987C52.4481 56.1422 52.4481 55.6171 52.1852 55.2232C51.9223 54.698 51.5279 54.3042 51.0021 54.3042C50.4763 54.3042 50.2134 54.3042 49.9505 54.698C49.6876 55.0919 49.4247 55.2232 49.4247 55.6171C49.4247 55.8796 49.4247 56.2735 49.4247 56.7987V57.3238C49.4247 57.9803 49.4247 58.3742 49.4247 58.5055C49.4247 59.0306 49.6876 59.2932 50.0819 59.2932C50.0819 59.2932 49.819 59.2932 49.5561 59.2932H48.5045C48.5045 59.2932 48.2416 59.2932 48.1102 59.2932C48.3731 59.1619 48.636 58.8993 48.636 58.5055C48.636 58.3742 48.636 57.9803 48.636 57.5864V56.7987C48.636 55.2232 48.1102 54.3042 47.19 54.3042C46.2698 54.3042 45.4811 55.0919 45.4811 56.7987V57.3238C45.4811 57.9803 45.4811 58.3742 45.4811 58.3742C45.4811 58.768 45.744 59.1619 46.0069 59.1619C46.0069 59.1619 45.744 59.1619 45.4811 59.1619H44.561C44.561 59.1619 44.2981 59.1619 44.0352 59.1619L44.1666 59.0306Z" fill="#002073"/>
<path d="M53.7629 61C54.0258 61 54.1573 60.7374 54.2887 60.4748C54.2887 60.2123 54.2887 59.6871 54.2887 58.8993V55.0919C54.2887 54.8293 54.2887 54.698 54.2887 54.5667C54.2887 54.5667 54.0258 54.4354 53.8944 54.3042C53.8944 54.3042 54.1573 54.3042 54.2887 54.1729C54.5516 54.1729 54.6831 54.0416 55.0774 53.9103V55.3545C55.3403 54.3042 55.9976 53.779 57.0492 53.779C58.1008 53.779 58.4952 54.0416 58.8895 54.5667C59.2839 55.0919 59.6782 55.7484 59.6782 56.5361C59.6782 57.3238 59.4153 57.9803 58.8895 58.5055C58.3637 59.0306 57.7064 59.2932 56.9177 59.2932C56.129 59.2932 56.129 59.2932 55.7347 59.0306C55.3403 58.7681 55.0774 58.5055 54.946 58.2429V59.0306C54.946 59.6871 54.946 60.081 54.946 60.2122C54.946 60.7374 55.2089 61 55.6032 61C55.3403 61 55.2089 61 55.0774 61H54.0258C54.0258 61 53.7629 61 53.5 61H53.7629ZM56.9177 58.8993C57.4435 58.8993 57.9694 58.6368 58.3637 58.2429C58.7581 57.849 58.8895 57.1926 58.8895 56.4048C58.8895 55.6171 58.7581 55.0919 58.4952 54.698C58.2323 54.1729 57.7065 53.9103 57.0492 53.9103C56.3919 53.9103 55.8661 54.1729 55.6032 54.698C55.3403 55.0919 55.2089 55.7484 55.2089 56.4048C55.2089 57.0613 55.2089 57.7177 55.6032 58.1116C55.8661 58.6368 56.3919 58.8993 57.0492 58.8993H56.9177Z" fill="#002073"/>
<path d="M65.3336 56.93V57.1926C65.3336 57.849 64.9393 58.3742 64.5449 58.768C64.1506 59.1619 63.6248 59.2932 62.9675 59.2932C62.3103 59.2932 61.5216 59.0306 60.9957 58.5055C60.4699 57.9803 60.207 57.3238 60.207 56.5361C60.207 55.7484 60.4699 55.0919 60.9957 54.5667C61.5216 54.0416 62.1788 53.779 62.9675 53.779C63.7562 53.779 64.1506 53.9103 64.6764 54.3042C65.2022 54.698 65.4651 55.2232 65.4651 55.8796H61.2586C61.2586 55.8796 61.2586 56.0109 61.2586 56.1422V56.5361C61.2586 57.1926 61.3901 57.849 61.7845 58.2429C62.1788 58.768 62.7046 59.0306 63.3619 59.0306C64.0191 59.0306 64.4135 58.8993 64.6764 58.5055C64.9393 58.1116 65.3336 57.7177 65.4651 57.0613L65.3336 56.93ZM61.1272 55.6171H64.4135C64.4135 55.0919 64.282 54.698 64.0191 54.4354C63.7562 54.1729 63.3619 53.9103 62.9675 53.9103C62.5732 53.9103 62.0474 54.0416 61.7845 54.4354C61.5215 54.698 61.2586 55.0919 61.2586 55.6171H61.1272Z" fill="#002073"/>
<path d="M65.7277 59.0306C65.9907 58.8993 66.1221 58.768 66.2536 58.5055C66.2536 58.2429 66.385 57.849 66.385 57.1926V55.4858C66.385 55.0919 66.385 54.8293 66.385 54.698C66.385 54.4354 66.1221 54.3042 65.8592 54.3042C66.385 54.0416 66.7794 54.0416 67.1737 53.9103V55.3545C67.5681 54.3042 68.2253 53.779 69.014 53.779L68.6197 54.8293C68.4882 54.698 68.3568 54.5667 68.0939 54.5667C67.831 54.5667 67.5681 54.698 67.3052 54.9606C67.1737 55.2232 67.0423 55.7484 67.0423 56.2735V56.7987C67.0423 57.5864 67.0423 58.1116 67.0423 58.2429C67.0423 58.5055 67.3052 58.6368 67.5681 58.6368C67.5681 58.6368 67.3052 58.6368 67.0423 58.6368H65.9907C65.9907 58.6368 65.7277 58.6368 65.4648 58.6368L65.7277 59.0306Z" fill="#002073"/>
<path d="M69.1445 58.6368L69.5389 57.4551C69.5389 57.849 69.8018 58.2429 70.1961 58.5055C70.5905 58.7681 70.9849 58.7681 71.5107 58.7681C72.0365 58.7681 72.2994 58.7681 72.5623 58.5055C72.9566 58.2429 73.0881 57.9803 73.0881 57.5864C73.0881 57.1926 72.9566 56.93 72.5623 56.7987C72.4308 56.7987 72.0365 56.6674 71.5107 56.5361C70.1961 56.4048 69.5389 55.8797 69.5389 55.0919C69.5389 54.3042 69.8018 54.1729 70.3276 53.9103C70.722 53.6477 71.2478 53.5164 71.7736 53.5164C72.2994 53.5164 73.0881 53.5164 73.7453 53.779L73.4824 54.698C73.2195 53.9103 72.8252 53.6477 72.0365 53.6477C71.2478 53.6477 71.2478 53.6477 70.9849 54.0416C70.722 54.3042 70.5905 54.5667 70.5905 54.8293C70.5905 55.0919 70.722 55.4858 71.1163 55.6171C71.2478 55.6171 71.6421 55.6171 72.1679 55.7484C72.9566 55.7484 73.4824 56.0109 73.7453 56.1422C74.0082 56.4048 74.1397 56.6674 74.1397 57.0613C74.1397 57.7177 73.8768 58.1116 73.2195 58.5055C72.6937 58.7681 72.1679 58.8993 71.5107 58.8993C70.8534 58.8993 70.722 58.8993 70.3276 58.8993C69.9332 58.8993 69.5389 58.7681 69.276 58.5055L69.1445 58.6368Z" fill="#002073"/>
<path d="M83.6055 59.0306C83.8684 58.8994 83.9998 58.7681 84.1313 58.5055C84.2627 58.2429 84.2627 57.7177 84.2627 56.7987V53.3851C84.2627 53.1225 84.2627 52.9913 84.2627 52.86C84.2627 52.7287 83.9998 52.7287 83.8684 52.5974C84.1313 52.5974 84.5256 52.5974 84.7885 52.5974C84.7885 52.5974 84.7885 52.5974 85.1829 52.5974C85.1829 52.5974 85.4458 52.5974 85.7087 52.5974C85.3143 52.7287 85.1829 52.9913 85.1829 53.5164V55.6171C85.1829 55.6171 85.4458 55.6171 85.7087 55.6171C85.9716 55.6171 86.2345 55.6171 86.2345 55.6171H88.4692C88.4692 55.6171 88.4692 55.6171 88.6006 55.6171C88.6006 55.6171 88.995 55.6171 89.2579 55.6171V53.5164C89.2579 53.1225 89.1264 52.86 88.7321 52.7287C88.995 52.7287 89.3893 52.7287 89.7837 52.7287C90.1781 52.7287 90.3095 52.7287 90.7039 52.7287C90.3095 52.86 90.178 53.1225 90.178 53.6477V57.0613C90.178 57.7177 90.178 58.1116 90.178 58.2429C90.178 58.7681 90.441 59.0306 90.8353 59.1619H90.5724H89.6522C89.3893 59.1619 89.1264 59.1619 88.7321 59.1619H88.6006C88.995 59.0306 89.1264 58.6368 89.2579 58.1116C89.2579 57.9803 89.2579 57.5864 89.2579 56.93V55.8797C89.2579 55.8797 88.995 55.8797 88.8635 55.8797H85.1829V56.93C85.1829 57.5864 85.1829 57.9803 85.1829 58.1116C85.1829 58.6368 85.4458 58.8994 85.8402 59.0306C85.8402 59.0306 85.7087 59.0306 85.5772 59.0306H84.7885C84.6571 59.0306 84.2627 59.0306 83.8684 59.0306H83.6055Z" fill="#002073"/>
<path d="M96.2215 59.0306C95.8272 59.0306 95.5643 59.0306 95.4328 59.0306H95.1699C95.1699 58.8993 95.0385 58.7681 94.907 58.6368C94.907 58.5055 94.907 58.3742 94.7756 58.1116C94.6441 58.5055 94.3812 58.7681 93.9869 58.8993C93.5925 59.0306 93.1982 59.1619 92.8038 59.1619C92.4095 59.1619 91.6207 59.0306 91.3578 58.7681C90.9635 58.5055 90.832 58.1116 90.832 57.5864C90.832 57.0613 91.0949 56.6674 91.7522 56.2735C92.4095 55.8797 93.3296 55.8797 94.5127 55.8797H94.7756C94.7756 55.2232 94.6441 54.8293 94.3812 54.4355C94.1183 54.0416 93.724 53.9103 93.0667 53.9103C92.0151 53.9103 91.4893 54.3042 91.2264 55.2232L90.9635 54.1729C91.6207 53.779 92.4095 53.6477 93.1982 53.6477C93.9869 53.6477 94.6441 53.9103 95.0385 54.3042C95.3014 54.5667 95.4328 54.8293 95.4328 55.0919C95.4328 55.3545 95.4328 55.6171 95.4328 56.0109V56.6674C95.4328 57.3239 95.4328 57.7177 95.4328 57.849C95.4328 58.3742 95.6957 58.7681 96.0901 58.7681L96.2215 59.0306ZM94.907 56.0109C94.907 56.0109 94.907 56.0109 94.7756 56.0109H94.5127C93.8554 56.0109 93.1982 56.0109 92.8038 56.2735C92.1465 56.5361 91.8836 56.93 91.8836 57.5864C91.8836 58.2429 91.8836 58.2429 92.278 58.5055C92.5409 58.7681 92.8038 58.7681 93.3296 58.7681C93.8554 58.7681 94.3812 58.6368 94.6441 58.2429C94.907 57.849 95.0385 57.4551 95.0385 56.7987V55.8797L94.907 56.0109Z" fill="#002073"/>
<path d="M96.091 61C96.3539 61 96.4854 60.7374 96.6168 60.4748C96.6168 60.2123 96.6168 59.6871 96.6168 58.8993V55.0919C96.6168 54.8293 96.6168 54.698 96.6168 54.5667C96.6168 54.5667 96.3539 54.4354 96.2225 54.3042C96.2225 54.3042 96.4854 54.3042 96.6168 54.1729C96.8797 54.1729 97.0112 54.0416 97.4055 53.9103V55.3545C97.6684 54.3042 98.3257 53.779 99.3773 53.779C100.429 53.779 100.823 54.0416 101.218 54.5667C101.612 55.0919 102.006 55.7484 102.006 56.5361C102.006 57.3238 101.743 57.9803 101.218 58.5055C100.692 59.0306 100.035 59.2932 99.2459 59.2932C98.4572 59.2932 98.4572 59.2932 98.0628 59.0306C97.6684 58.7681 97.4055 58.5055 97.2741 58.2429V59.0306C97.2741 59.6871 97.2741 60.081 97.2741 60.2122C97.2741 60.7374 97.537 61 97.9313 61C97.6684 61 97.537 61 97.4055 61H96.3539C96.3539 61 96.091 61 95.8281 61H96.091ZM99.2459 58.8993C99.7717 58.8993 100.297 58.6368 100.692 58.2429C101.086 57.849 101.218 57.1926 101.218 56.4048C101.218 55.6171 101.086 55.0919 100.823 54.698C100.56 54.1729 100.035 53.9103 99.3773 53.9103C98.7201 53.9103 98.1943 54.1729 97.9313 54.698C97.6684 55.0919 97.537 55.7484 97.537 56.4048C97.537 57.0613 97.537 57.7177 97.9313 58.1116C98.1943 58.6368 98.7201 58.8993 99.3773 58.8993H99.2459Z" fill="#002073"/>
<path d="M102.271 61C102.534 61 102.665 60.7374 102.797 60.4748C102.797 60.2123 102.797 59.6871 102.797 58.8993V55.0919C102.797 54.8293 102.797 54.698 102.797 54.5667C102.797 54.5667 102.534 54.4354 102.402 54.3042C102.402 54.3042 102.665 54.3042 102.797 54.1729C103.059 54.1729 103.191 54.0416 103.585 53.9103V55.3545C103.848 54.3042 104.505 53.779 105.557 53.779C106.609 53.779 107.003 54.0416 107.397 54.5667C107.792 55.0919 108.186 55.7484 108.186 56.5361C108.186 57.3238 107.923 57.9803 107.397 58.5055C106.872 59.0306 106.214 59.2932 105.426 59.2932C104.637 59.2932 104.637 59.2932 104.242 59.0306C103.848 58.7681 103.585 58.5055 103.454 58.2429V59.0306C103.454 59.6871 103.454 60.081 103.454 60.2122C103.454 60.7374 103.717 61 104.111 61C103.848 61 103.717 61 103.585 61H102.534C102.534 61 102.271 61 102.008 61H102.271ZM105.294 58.8993C105.82 58.8993 106.346 58.6368 106.74 58.2429C107.134 57.849 107.266 57.1926 107.266 56.4048C107.266 55.6171 107.134 55.0919 106.872 54.698C106.609 54.1729 106.083 53.9103 105.426 53.9103C104.768 53.9103 104.242 54.1729 103.98 54.698C103.717 55.0919 103.585 55.7484 103.585 56.4048C103.585 57.0613 103.585 57.7177 103.98 58.1116C104.242 58.6368 104.768 58.8993 105.426 58.8993H105.294Z" fill="#002073"/>
<path d="M108.449 59.0306C108.712 58.8993 108.975 58.6368 109.106 58.1116C109.106 57.9803 109.106 57.5864 109.106 57.0613V55.2232C109.106 54.8293 109.106 54.5667 109.106 54.4354C109.106 54.4354 108.844 54.3041 108.712 54.3041C108.975 54.3041 109.369 54.0416 109.895 53.9103C109.895 53.9103 110.027 53.9103 110.158 53.9103C110.158 54.4354 110.158 54.9606 110.158 55.4858V56.7987C110.158 57.4551 110.158 57.849 110.158 57.9803C110.158 58.5055 110.421 58.768 110.815 58.8993C110.684 58.8993 110.552 58.8993 110.421 58.8993H109.238C109.238 58.8993 108.975 58.8993 108.712 58.8993L108.449 59.0306ZM108.975 52.5974C108.975 52.4661 108.975 52.3348 109.106 52.2035C109.238 52.0722 109.369 52.0722 109.501 52.0722C109.632 52.0722 109.764 52.0722 109.895 52.2035C109.895 52.2035 110.027 52.4661 110.027 52.5974C110.027 52.7287 110.027 52.8599 109.895 52.9912C109.895 52.9912 109.632 53.1225 109.501 53.1225C109.238 53.1225 108.975 52.9912 108.975 52.5974Z" fill="#002073"/>
<path d="M110.421 59.0306C110.683 58.8993 110.815 58.768 110.946 58.5055C110.946 58.2429 111.078 57.849 111.078 57.0613V55.3545C111.078 54.9606 111.078 54.8293 111.078 54.698C111.078 54.4354 110.815 54.3042 110.552 54.3042C110.946 54.1729 111.341 54.0416 111.735 53.9103V55.3545C111.998 54.3042 112.655 53.779 113.838 53.779C115.021 53.779 115.153 54.0416 115.547 54.5667C115.547 54.698 115.81 54.9606 115.81 55.2232C115.81 55.4858 115.81 55.8796 115.81 56.5361V56.93C115.81 57.5864 115.81 57.9803 115.81 58.1116C115.81 58.6368 116.073 58.8993 116.467 59.0306C116.467 59.0306 116.204 59.0306 115.941 59.0306H115.021C115.021 59.0306 114.758 59.0306 114.496 59.0306C114.758 58.8993 114.89 58.768 115.021 58.5055C115.153 58.2429 115.153 57.849 115.153 57.0613V56.4048C115.153 55.4858 115.153 54.8293 114.758 54.4354C114.496 54.0416 114.101 53.779 113.575 53.779C113.05 53.779 112.524 54.0416 112.261 54.4354C111.998 54.8293 111.735 55.4858 111.735 56.2735V56.7987C111.735 57.4551 111.735 57.849 111.735 57.849C111.735 58.2429 111.998 58.5055 112.261 58.6368C112.261 58.6368 111.998 58.6368 111.735 58.6368H110.815C110.815 58.6368 110.552 58.6368 110.289 58.6368L110.421 59.0306Z" fill="#002073"/>
<path d="M121.857 56.93V57.1926C121.857 57.849 121.463 58.3742 121.068 58.768C120.674 59.1619 120.148 59.2932 119.491 59.2932C118.834 59.2932 118.045 59.0306 117.519 58.5055C116.993 57.9803 116.73 57.3238 116.73 56.5361C116.73 55.7484 116.993 55.0919 117.519 54.5667C118.045 54.0416 118.702 53.779 119.491 53.779C120.28 53.779 120.674 53.9103 121.2 54.3042C121.726 54.698 121.989 55.2232 121.989 55.8796H117.782C117.782 55.8796 117.782 56.0109 117.782 56.1422V56.5361C117.782 57.1926 117.914 57.849 118.308 58.2429C118.702 58.768 119.228 59.0306 119.885 59.0306C120.543 59.0306 120.937 58.8993 121.2 58.5055C121.463 58.1116 121.857 57.7177 121.989 57.0613L121.857 56.93ZM117.651 55.6171H120.937C120.937 55.0919 120.805 54.698 120.543 54.4354C120.28 54.1729 119.885 53.9103 119.491 53.9103C119.097 53.9103 118.571 54.0416 118.308 54.4354C118.045 54.698 117.782 55.0919 117.782 55.6171H117.651Z" fill="#002073"/>
<path d="M122.383 58.6368L122.777 57.4551C122.777 57.849 123.04 58.2429 123.434 58.5055C123.829 58.7681 124.223 58.7681 124.749 58.7681C125.275 58.7681 125.538 58.7681 125.801 58.5055C126.195 58.2429 126.326 57.9803 126.326 57.5864C126.326 57.1926 126.195 56.93 125.801 56.7987C125.669 56.7987 125.275 56.6674 124.749 56.5361C123.434 56.4048 122.777 55.8797 122.777 55.0919C122.777 54.3042 123.04 54.1729 123.566 53.9103C123.96 53.6477 124.486 53.5164 125.012 53.5164C125.538 53.5164 126.326 53.5164 126.984 53.779L126.721 54.698C126.458 53.9103 126.063 53.6477 125.275 53.6477C124.486 53.6477 124.486 53.6477 124.223 54.0416C123.96 54.3042 123.829 54.5667 123.829 54.8293C123.829 55.0919 123.96 55.4858 124.355 55.6171C124.486 55.6171 124.88 55.6171 125.406 55.7484C126.195 55.7484 126.721 56.0109 126.984 56.1422C127.247 56.4048 127.378 56.6674 127.378 57.0613C127.378 57.7177 127.115 58.1116 126.458 58.5055C125.932 58.7681 125.406 58.8993 124.749 58.8993C124.092 58.8993 123.96 58.8993 123.566 58.8993C123.172 58.8993 122.777 58.7681 122.514 58.5055L122.383 58.6368Z" fill="#002073"/>
<path d="M127.773 58.6368L128.168 57.4551C128.168 57.849 128.431 58.2429 128.825 58.5055C129.219 58.7681 129.614 58.7681 130.14 58.7681C130.665 58.7681 130.928 58.7681 131.191 58.5055C131.586 58.2429 131.717 57.9803 131.717 57.5864C131.717 57.1926 131.586 56.93 131.191 56.7987C131.06 56.7987 130.665 56.6674 130.14 56.5361C128.825 56.4048 128.168 55.8797 128.168 55.0919C128.168 54.3042 128.431 54.1729 128.957 53.9103C129.351 53.6477 129.877 53.5164 130.402 53.5164C130.928 53.5164 131.717 53.5164 132.374 53.779L132.111 54.698C131.848 53.9103 131.454 53.6477 130.665 53.6477C129.877 53.6477 129.877 53.6477 129.614 54.0416C129.351 54.3042 129.219 54.5667 129.219 54.8293C129.219 55.0919 129.351 55.4858 129.745 55.6171C129.877 55.6171 130.271 55.6171 130.797 55.7484C131.586 55.7484 132.111 56.0109 132.374 56.1422C132.637 56.4048 132.769 56.6674 132.769 57.0613C132.769 57.7177 132.506 58.1116 131.848 58.5055C131.323 58.7681 130.797 58.8993 130.14 58.8993C129.482 58.8993 129.351 58.8993 128.957 58.8993C128.562 58.8993 128.168 58.7681 127.905 58.5055L127.773 58.6368Z" fill="#002073"/>
<path d="M26.1584 57.3239C25.6326 57.3239 25.2383 56.93 25.2383 56.4048C25.2383 55.8797 25.6326 55.4858 26.1584 55.4858C26.6842 55.4858 27.0786 55.8797 27.0786 56.4048C27.0786 56.93 26.6842 57.3239 26.1584 57.3239ZM26.1584 55.8797C25.8955 55.8797 25.6326 56.1422 25.6326 56.4048C25.6326 56.6674 25.8955 56.93 26.1584 56.93C26.4213 56.93 26.6842 56.6674 26.6842 56.4048C26.6842 56.1422 26.4213 55.8797 26.1584 55.8797Z" fill="#002073"/>
<path d="M78.2131 57.3239C77.6873 57.3239 77.293 56.93 77.293 56.4048C77.293 55.8797 77.6873 55.4858 78.2131 55.4858C78.7389 55.4858 79.1333 55.8797 79.1333 56.4048C79.1333 56.93 78.7389 57.3239 78.2131 57.3239ZM78.2131 55.8797C77.9502 55.8797 77.6873 56.1422 77.6873 56.4048C77.6873 56.6674 77.9502 56.93 78.2131 56.93C78.476 56.93 78.7389 56.6674 78.7389 56.4048C78.7389 56.1422 78.476 55.8797 78.2131 55.8797Z" fill="#002073"/>
</g>
<defs>
<clipPath id="clip0_3242_845">
<rect width="158" height="62" fill="white"/>
</clipPath>
</defs>
</svg>
